<?xml version="1.0" encoding="iso-8859-1"?>
<!-- Generator: Adobe Illustrator 28.0.0, SVG Export Plug-In . SVG Version: 6.00 Build 0)  -->
<svg version="1.1" xmlns="http://www.w3.org/2000/svg" xmlns:xlink="http://www.w3.org/1999/xlink" x="0px" y="0px"
	 viewBox="0 0 10 10" style="enable-background:new 0 0 10 10;" xml:space="preserve">
<g id="&#x30EC;&#x30A4;&#x30E4;&#x30FC;_1">
	<path style="fill:#D14F4D;" d="M0.931,4.765V1.568c0-0.062,0.029-0.122,0.081-0.166l0.39-0.333C1.454,1.025,1.524,1,1.597,1h2.806
		c0.073,0,0.143,0.025,0.195,0.069l0.39,0.333C5.04,1.446,5.069,1.506,5.069,1.568v3.197C5.069,4.895,4.945,5,4.793,5H1.207
		C1.055,5,0.931,4.895,0.931,4.765z M4.517,1.471L4.241,1.235H1.759L1.483,1.471H4.517z"/>
	<g>
		<path style="fill:none;stroke:#F4A12E;stroke-width:0.2667;stroke-linecap:round;stroke-miterlimit:10;" d="M2.067,3.933
			c0.195,0,0.195,0.823,0.389,0.823c0.196,0,0.196-0.823,0.391-0.823c0.195,0,0.195,0.823,0.39,0.823
			c0.196,0,0.196-0.823,0.392-0.823c0.197,0,0.197,0.823,0.393,0.823c0.197,0,0.197-0.823,0.394-0.823
			c0.197,0,0.197,0.823,0.394,0.823"/>
	</g>
	<g>
		<path style="fill:none;stroke:#F4A12E;stroke-width:0.2667;stroke-linecap:round;stroke-miterlimit:10;" d="M2.08,2.864
			c0.195,0,0.195,0.823,0.389,0.823c0.196,0,0.196-0.823,0.391-0.823c0.195,0,0.195,0.823,0.39,0.823
			c0.196,0,0.196-0.823,0.392-0.823c0.197,0,0.197,0.823,0.393,0.823c0.197,0,0.197-0.823,0.394-0.823
			c0.197,0,0.197,0.823,0.394,0.823"/>
	</g>
</g>
<g id="&#x30EC;&#x30A4;&#x30E4;&#x30FC;_2">
	<path style="fill:#BDCB46;" d="M5.431,4.765V1.568c0-0.062,0.029-0.122,0.081-0.166l0.39-0.333C5.954,1.025,6.024,1,6.097,1h2.806
		c0.073,0,0.143,0.025,0.195,0.069l0.39,0.333C9.54,1.446,9.569,1.506,9.569,1.568v3.197C9.569,4.895,9.445,5,9.293,5H5.707
		C5.555,5,5.431,4.895,5.431,4.765z M9.017,1.471L8.741,1.235H6.259L5.983,1.471H9.017z"/>
	
		<polyline style="fill:none;stroke:#098F81;stroke-width:0.2759;stroke-linecap:round;stroke-linejoin:round;stroke-miterlimit:10;" points="
		6.672,3.446 7.042,3.446 7.38,4.004 8.12,2.793 8.539,3.398 9.327,3.398 	"/>
	
		<polyline style="fill:none;stroke:#098F81;stroke-width:0.2759;stroke-linecap:round;stroke-linejoin:round;stroke-miterlimit:10;" points="
		6.641,4.299 7.011,4.299 7.349,4.856 8.089,3.646 8.508,4.251 9.295,4.251 	"/>
</g>
<g id="&#x30EC;&#x30A4;&#x30E4;&#x30FC;_3">
	<path style="fill:#607D8B;" d="M0.931,9.065V5.868c0-0.062,0.029-0.122,0.081-0.166l0.39-0.333C1.454,5.325,1.524,5.3,1.597,5.3
		h2.806c0.073,0,0.143,0.025,0.195,0.069l0.39,0.333C5.04,5.746,5.069,5.806,5.069,5.868v3.197c0,0.13-0.124,0.235-0.276,0.235
		H1.207C1.055,9.3,0.931,9.195,0.931,9.065z M4.517,5.771L4.241,5.535H1.759L1.483,5.771H4.517z"/>
	
		<polyline style="fill:none;stroke:#FDD835;stroke-width:0.2759;stroke-linecap:round;stroke-linejoin:round;stroke-miterlimit:10;" points="
		2.172,8.32 2.542,8.32 2.88,9.131 3.62,7.369 4.039,8.25 4.827,8.25 	"/>
</g>
<g id="&#x30EC;&#x30A4;&#x30E4;&#x30FC;_4">
	<path style="fill:#795548;" d="M5.431,9.065V5.868c0-0.062,0.029-0.122,0.081-0.166l0.39-0.333C5.954,5.325,6.024,5.3,6.097,5.3
		h2.806c0.073,0,0.143,0.025,0.195,0.069l0.39,0.333C9.54,5.746,9.569,5.806,9.569,5.868v3.197c0,0.13-0.124,0.235-0.276,0.235
		H5.707C5.555,9.3,5.431,9.195,5.431,9.065z M9.017,5.771L8.741,5.535H6.259L5.983,5.771H9.017z"/>
	<g id="figure_1">
		<g id="patch_1">
			<path style="fill:#FFFFFF;" d="M6.672,9.158h2.772V7.231H6.672V9.158z"/>
		</g>
		<g id="axes_1">
			<g id="patch_2">
				<g>
					<defs>
						<rect id="SVGID_1_" x="6.672" y="7.231" width="2.772" height="1.927"/>
					</defs>
					<clipPath id="SVGID_00000035491322001486674370000012762639339109804468_">
						<use xlink:href="#SVGID_1_"  style="overflow:visible;"/>
					</clipPath>
					<path style="clip-path:url(#SVGID_00000035491322001486674370000012762639339109804468_);fill:#2196F3;" d="M6.672,9.158h0.693
						V8.676H6.672V9.158z"/>
				</g>
			</g>
			<g id="patch_3">
				<g>
					<defs>
						<rect id="SVGID_00000026855549949054201650000018061764808589370004_" x="6.672" y="7.231" width="2.772" height="1.927"/>
					</defs>
					<clipPath id="SVGID_00000100374370353183295470000010821369914170950559_">
						<use xlink:href="#SVGID_00000026855549949054201650000018061764808589370004_"  style="overflow:visible;"/>
					</clipPath>
					<path style="clip-path:url(#SVGID_00000100374370353183295470000010821369914170950559_);fill:#F44336;" d="M7.365,9.158h0.693
						V8.676H7.365V9.158z"/>
				</g>
			</g>
			<g id="patch_4">
				<g>
					<defs>
						<rect id="SVGID_00000094601665719866640010000012859367245681712296_" x="6.672" y="7.231" width="2.772" height="1.927"/>
					</defs>
					<clipPath id="SVGID_00000023982142474619879000000003831865898680444560_">
						<use xlink:href="#SVGID_00000094601665719866640010000012859367245681712296_"  style="overflow:visible;"/>
					</clipPath>
					<path style="clip-path:url(#SVGID_00000023982142474619879000000003831865898680444560_);fill:#1976D2;" d="M8.058,9.158h0.693
						V8.676H8.058V9.158z"/>
				</g>
			</g>
			<g id="patch_5">
				<g>
					<defs>
						<rect id="SVGID_00000023248024154729463850000015798079828080785836_" x="6.672" y="7.231" width="2.772" height="1.927"/>
					</defs>
					<clipPath id="SVGID_00000183214550195521245940000015393902909328561580_">
						<use xlink:href="#SVGID_00000023248024154729463850000015798079828080785836_"  style="overflow:visible;"/>
					</clipPath>
					<path style="clip-path:url(#SVGID_00000183214550195521245940000015393902909328561580_);fill:#BBDEFB;" d="M8.751,9.158h0.693
						V8.676H8.751V9.158z"/>
				</g>
			</g>
			<g id="patch_6">
				<g>
					<defs>
						<rect id="SVGID_00000039132104198689412350000012245815993400215937_" x="6.672" y="7.231" width="2.772" height="1.927"/>
					</defs>
					<clipPath id="SVGID_00000080193663490514391260000013783404876406486182_">
						<use xlink:href="#SVGID_00000039132104198689412350000012245815993400215937_"  style="overflow:visible;"/>
					</clipPath>
					<path style="clip-path:url(#SVGID_00000080193663490514391260000013783404876406486182_);fill:#64B5F6;" d="M6.672,8.676h0.693
						V8.195H6.672V8.676z"/>
				</g>
			</g>
			<g id="patch_7">
				<g>
					<defs>
						<rect id="SVGID_00000013160352619065182800000000097008695577492395_" x="6.672" y="7.231" width="2.772" height="1.927"/>
					</defs>
					<clipPath id="SVGID_00000134949759314530430040000001774882476055798706_">
						<use xlink:href="#SVGID_00000013160352619065182800000000097008695577492395_"  style="overflow:visible;"/>
					</clipPath>
					<path style="clip-path:url(#SVGID_00000134949759314530430040000001774882476055798706_);fill:#BBDEFB;" d="M7.365,8.676h0.693
						V8.195H7.365V8.676z"/>
				</g>
			</g>
			<g id="patch_8">
				<g>
					<defs>
						<rect id="SVGID_00000085967247533478744270000005361162998790058662_" x="6.672" y="7.231" width="2.772" height="1.927"/>
					</defs>
					<clipPath id="SVGID_00000163074410184069423070000002841724305050944672_">
						<use xlink:href="#SVGID_00000085967247533478744270000005361162998790058662_"  style="overflow:visible;"/>
					</clipPath>
					<path style="clip-path:url(#SVGID_00000163074410184069423070000002841724305050944672_);fill:#2196F3;" d="M8.058,8.676h0.693
						V8.195H8.058V8.676z"/>
				</g>
			</g>
			<g id="patch_9">
				<g>
					<defs>
						<rect id="SVGID_00000105414588772825604510000013261035936629638039_" x="6.672" y="7.231" width="2.772" height="1.927"/>
					</defs>
					<clipPath id="SVGID_00000062187821308359437310000001409266710490265504_">
						<use xlink:href="#SVGID_00000105414588772825604510000013261035936629638039_"  style="overflow:visible;"/>
					</clipPath>
					<path style="clip-path:url(#SVGID_00000062187821308359437310000001409266710490265504_);fill:#64B5F6;" d="M8.751,8.676h0.693
						V8.195H8.751V8.676z"/>
				</g>
			</g>
			<g id="patch_10">
				<g>
					<defs>
						<rect id="SVGID_00000009577249390395893240000013309746966399787447_" x="6.672" y="7.231" width="2.772" height="1.927"/>
					</defs>
					<clipPath id="SVGID_00000161617336652870475820000013670831603354963624_">
						<use xlink:href="#SVGID_00000009577249390395893240000013309746966399787447_"  style="overflow:visible;"/>
					</clipPath>
					<path style="clip-path:url(#SVGID_00000161617336652870475820000013670831603354963624_);fill:#FFCDD2;" d="M6.672,8.195h0.693
						V7.713H6.672V8.195z"/>
				</g>
			</g>
			<g id="patch_11">
				<g>
					<defs>
						<rect id="SVGID_00000144297372057866265850000003475323908416264860_" x="6.672" y="7.231" width="2.772" height="1.927"/>
					</defs>
					<clipPath id="SVGID_00000007395678603475754180000014234523581449723275_">
						<use xlink:href="#SVGID_00000144297372057866265850000003475323908416264860_"  style="overflow:visible;"/>
					</clipPath>
					<path style="clip-path:url(#SVGID_00000007395678603475754180000014234523581449723275_);fill:#1976D2;" d="M7.365,8.195h0.693
						V7.713H7.365V8.195z"/>
				</g>
			</g>
			<g id="patch_12">
				<g>
					<defs>
						<rect id="SVGID_00000119080530233391335760000007735465080741538718_" x="6.672" y="7.231" width="2.772" height="1.927"/>
					</defs>
					<clipPath id="SVGID_00000183950703451009081680000012273757285722929069_">
						<use xlink:href="#SVGID_00000119080530233391335760000007735465080741538718_"  style="overflow:visible;"/>
					</clipPath>
					<path style="clip-path:url(#SVGID_00000183950703451009081680000012273757285722929069_);fill:#FF5252;" d="M8.058,8.195h0.693
						V7.713H8.058V8.195z"/>
				</g>
			</g>
			<g id="patch_13">
				<g>
					<defs>
						<rect id="SVGID_00000038385550412840607190000003453162461390370436_" x="6.672" y="7.231" width="2.772" height="1.927"/>
					</defs>
					<clipPath id="SVGID_00000152258994002628258210000011268044117639550895_">
						<use xlink:href="#SVGID_00000038385550412840607190000003453162461390370436_"  style="overflow:visible;"/>
					</clipPath>
					<path style="clip-path:url(#SVGID_00000152258994002628258210000011268044117639550895_);fill:#D32F2F;" d="M8.751,8.195h0.693
						V7.713H8.751V8.195z"/>
				</g>
			</g>
			<g id="patch_14">
				<g>
					<defs>
						<rect id="SVGID_00000104701838967616558290000010965407015416728962_" x="6.672" y="7.231" width="2.772" height="1.927"/>
					</defs>
					<clipPath id="SVGID_00000134930831670229248200000005800623439898719401_">
						<use xlink:href="#SVGID_00000104701838967616558290000010965407015416728962_"  style="overflow:visible;"/>
					</clipPath>
					<path style="clip-path:url(#SVGID_00000134930831670229248200000005800623439898719401_);fill:#2196F3;" d="M6.672,7.713h0.693
						V7.231H6.672V7.713z"/>
				</g>
			</g>
			<g id="patch_15">
				<g>
					<defs>
						<rect id="SVGID_00000111888252092832414740000002075753974732977838_" x="6.672" y="7.231" width="2.772" height="1.927"/>
					</defs>
					<clipPath id="SVGID_00000090291574955197478190000003273632925168103085_">
						<use xlink:href="#SVGID_00000111888252092832414740000002075753974732977838_"  style="overflow:visible;"/>
					</clipPath>
					<path style="clip-path:url(#SVGID_00000090291574955197478190000003273632925168103085_);fill:#FF5252;" d="M7.365,7.713h0.693
						V7.231H7.365V7.713z"/>
				</g>
			</g>
			<g id="patch_16">
				<g>
					<defs>
						<rect id="SVGID_00000090257292238709162160000007510531141750666143_" x="6.672" y="7.231" width="2.772" height="1.927"/>
					</defs>
					<clipPath id="SVGID_00000012458635354666763120000002035594697502621353_">
						<use xlink:href="#SVGID_00000090257292238709162160000007510531141750666143_"  style="overflow:visible;"/>
					</clipPath>
					<path style="clip-path:url(#SVGID_00000012458635354666763120000002035594697502621353_);fill:#FFCDD2;" d="M8.058,7.713h0.693
						V7.231H8.058V7.713z"/>
				</g>
			</g>
			<g id="patch_17">
				<g>
					<defs>
						<rect id="SVGID_00000060741165751190195260000004754808066422413711_" x="6.672" y="7.231" width="2.772" height="1.927"/>
					</defs>
					<clipPath id="SVGID_00000050629720654744671430000004929379601399187886_">
						<use xlink:href="#SVGID_00000060741165751190195260000004754808066422413711_"  style="overflow:visible;"/>
					</clipPath>
					<path style="clip-path:url(#SVGID_00000050629720654744671430000004929379601399187886_);fill:#BBDEFB;" d="M8.751,7.713h0.693
						V7.231H8.751V7.713z"/>
				</g>
			</g>
		</g>
	</g>
</g>
</svg>
