<?xml version="1.0" encoding="UTF-8"?>
<svg id="_レイヤー_1" data-name="レイヤー 1" xmlns="http://www.w3.org/2000/svg" viewBox="0 0 30 29">
  <defs>
    <style>
      .cls-1 {
        fill: none;
        stroke: #fdd835;
        stroke-linecap: round;
        stroke-linejoin: round;
        stroke-width: 2px;
      }

      .cls-2 {
        fill: #607d8b;
        stroke-width: 0px;
      }
    </style>
  </defs>
  <path class="cls-2" d="m0,27.29V4.12c0-.45.21-.89.59-1.21L3.41.5c.38-.32.88-.5,1.41-.5h20.34c.53,0,1.04.18,1.41.5l2.83,2.41c.38.32.59.75.59,1.21v23.18c0,.94-.9,1.71-2,1.71H2C.9,29,0,28.24,0,27.29ZM26,3.41l-2-1.71H6l-2,1.71h22Z"/>
  <polyline class="cls-1" points="9 21.89 11.68 21.89 14.13 27.78 19.5 15 22.54 21.39 28.24 21.39"/>
</svg>