<?xml version="1.0" encoding="UTF-8"?>
<svg id="_レイヤー_1" data-name="レイヤー 1" xmlns="http://www.w3.org/2000/svg" viewBox="0 0 30 29">
  <defs>
    <style>
      .cls-1 {
        fill: none;
        stroke: #f4a12e;
        stroke-linecap: round;
        stroke-miterlimit: 10;
        stroke-width: 2px;
      }

      .cls-2 {
        fill: #d14f4d;
        stroke-width: 0px;
      }
    </style>
  </defs>
  <path class="cls-2" d="m0,27.29V4.12c0-.45.21-.89.59-1.21L3.41.5c.38-.32.88-.5,1.41-.5h20.34c.53,0,1.04.18,1.41.5l2.83,2.41c.38.32.59.75.59,1.21v23.18c0,.94-.9,1.71-2,1.71H2C.9,29,0,28.24,0,27.29ZM26,3.41l-2-1.71H6l-2,1.71h22Z"/>
  <path class="cls-1" d="m8,21.5c1.47,0,1.47,6.17,2.94,6.17s1.47-6.17,2.94-6.17,1.47,6.17,2.94,6.17,1.47-6.17,2.94-6.17,1.47,6.17,2.94,6.17,1.47-6.17,2.94-6.17,1.47,6.17,2.94,6.17"/>
  <path class="cls-1" d="m8.1,13.48c1.47,0,1.47,6.17,2.94,6.17s1.47-6.17,2.94-6.17,1.47,6.17,2.94,6.17,1.47-6.17,2.94-6.17,1.47,6.17,2.94,6.17,1.47-6.17,2.94-6.17,1.47,6.17,2.94,6.17"/>
</svg>